<svg xmlns="http://www.w3.org/2000/svg" width="512" height="512" id="uk">
  <path fill="#2b4896" d="M256 16A240 240 0 0 0 16 256a240 240 0 0 0 240 240 240 240 0 0 0 240-240A240 240 0 0 0 256 16z"></path>
  <path fill="#fff" d="M98.863 74.986a240 240 0 0 0-33.11 35.194L154.306 216h62.576L98.863 74.986zm313.022-1.361L283.527 216h64.598l97.012-107.594a240 240 0 0 0-33.252-34.781zM167.498 296 68.525 405.781a240 240 0 0 0 33.073 33.94L229.69 296h-62.193zm114.604 0 128.863 142.922a240 240 0 0 0 33.39-34.615L346.713 296h-64.611z"></path>
  <path fill="#e32d3c" d="M82.166 90.945a240 240 0 0 0-10.61 11.6L167.274 216h20.422L82.166 90.945zm336.893-10.638L295.739 216h21.054L430.262 91.178a240 240 0 0 0-11.203-10.871zm-221.252 215.69V296L83.016 422.277a240 240 0 0 0 10.629 10.07l122.433-136.35h-18.271zm114.318.003 115.67 127.244a240 240 0 0 0 10.664-11.447L333.221 296h-21.096z"></path>
  <path fill="#fff" d="M256 16a240 240 0 0 0-40 3.396v472.98a240 240 0 0 0 40 3.624 240 240 0 0 0 40-3.396V19.623A240 240 0 0 0 256 16z"></path>
  <path fill="#fff" d="M19.623 216A240 240 0 0 0 16 256a240 240 0 0 0 3.396 40h472.98a240 240 0 0 0 3.624-40 240 240 0 0 0-3.396-40H19.623z"></path>
  <path fill="#e32d3c" d="M256 16a240 240 0 0 0-24 1.453v477.342A240 240 0 0 0 256 496a240 240 0 0 0 24-1.453V17.205A240 240 0 0 0 256 16z"></path>
  <path fill="#e32d3c" d="M17.205 232A240 240 0 0 0 16 256a240 240 0 0 0 1.453 24h477.342A240 240 0 0 0 496 256a240 240 0 0 0-1.453-24H17.205z"></path>
</svg>
