<svg xmlns="http://www.w3.org/2000/svg" width="48" height="48" id="south-korea">
  <g fill="none" fill-rule="evenodd">
    <circle cx="24" cy="24" r="24" fill="#FFF"></circle>
    <g fill="#000">
      <path d="M6.47 15.004 10.385 9.2l.829.56-3.915 5.803-.829-.56zm1.658 1.118 3.915-5.803.829.559-3.915 5.803-.829-.559zm1.658 1.118 3.915-5.803.829.56-3.915 5.803-.829-.56zM10.615 30.2l3.915 5.804-.83.559-3.914-5.803.83-.56zM8.957 31.32l1.678 2.487-.83.56-1.677-2.488.83-.56zm2.237 3.316 1.678 2.487-.83.56-1.677-2.488.83-.56zM7.3 32.437l3.915 5.803-.83.56-3.914-5.804.83-.559zM37.615 9.2l1.678 2.487-.829.56-1.678-2.487.83-.56zm2.237 3.317 1.678 2.487-.83.559-1.677-2.487.83-.56zm-3.895-2.198 3.915 5.803-.83.56-3.914-5.804.83-.56zM34.3 11.437l1.678 2.487-.83.56-1.677-2.488.83-.559zm2.237 3.316 1.678 2.487-.83.56-1.677-2.487.829-.56zM33.47 36.004l1.678-2.487.829.559-1.678 2.487-.829-.56zm2.237-3.317 1.678-2.487.829.56-1.678 2.487-.829-.56zm-.579 4.435 1.678-2.487.829.56-1.678 2.486-.829-.559zm2.237-3.316 1.678-2.487.829.559-1.678 2.487-.829-.56zm-.579 4.434 1.678-2.487.829.56-1.678 2.487-.829-.56zm2.237-3.316 1.678-2.487.829.56-1.678 2.486-.829-.559z"></path>
    </g>
    <circle cx="24" cy="24" r="8" fill="#E94B35"></circle>
    <path fill="#227FBB" d="M32 24a8 8 0 1 1-16 0 4 4 0 1 0 8 0 4 4 0 1 1 8 0z"></path>
  </g>
</svg>
