<?xml version="1.0" encoding="UTF-8"?><svg id="russia" xmlns="http://www.w3.org/2000/svg" width="100" height="100" viewBox="0 0 100 100"><path d="M50,0C28.624,0,10.346,13.475,3.197,32.369l46.831,5.007,46.771-5.007C89.653,13.476,71.376,0,50,0Z" style="fill:#f1f1f1;"/><path d="M50,100c21.376,0,39.653-13.475,46.801-32.369l-46.801-3.338-46.801,3.338c7.147,18.893,25.425,32.369,46.801,32.369Z" style="fill:#e90000;"/><path d="M97.379,34.003c-.184-.547-.377-1.092-.579-1.632H3.197c-4.263,10.974-4.263,24.284,0,35.258h93.602c4.043-10.402,4.277-23.089.579-33.626Z" style="fill:#0000d2;"/></svg>