<?xml version="1.0" encoding="UTF-8"?><svg id="china" xmlns="http://www.w3.org/2000/svg" width="100" height="100" viewBox="0 0 100 100"><path d="M50,0C22.43,0,0,22.43,0,50s22.431,50,50,50,50-22.43,50-50S77.57,0,50,0Z" style="fill:#e90000;"/><path d="M40.075,44.864l-4.884-9.896-4.885,9.896-10.921,1.587,7.903,7.703-1.866,10.878,9.769-5.136,9.768,5.136-1.866-10.878,7.903-7.703-10.921-1.587ZM64.959,34.193l3.081-1.621,3.083,1.621-.588-3.432,2.494-2.432-3.447-.501-1.542-3.123-1.541,3.123-3.447.501,2.494,2.432-.588,3.432ZM69.582,68.929l-1.542-3.123-1.541,3.123-3.447.501,2.494,2.43-.588,3.433,3.081-1.621,3.083,1.621-.588-3.433,2.494-2.43-3.447-.501ZM73.132,43.152l-.589,3.432,3.083-1.621,3.083,1.621-.588-3.432,2.494-2.432-3.447-.501-1.542-3.123-1.541,3.123-3.447.501,2.494,2.432ZM77.168,54.573l-1.542-3.123-1.541,3.123-3.447.502,2.494,2.43-.589,3.433,3.083-1.621,3.083,1.621-.588-3.433,2.494-2.43-3.447-.502Z" style="fill:#f6f60c;"/></svg>