<?xml version="1.0" encoding="UTF-8"?><svg id="germany" xmlns="http://www.w3.org/2000/svg" width="64" height="64" viewBox="0 0 64 64"><path d="M32,0C19.157,0,7.689,7.584,2.623,19.353h58.751C56.308,7.583,44.841,0,32,0Z" style="fill:#282a2b;"/><path d="M32,64c13.04,0,24.584-7.753,29.56-19.782H2.442c4.972,12.029,16.515,19.782,29.558,19.782Z" style="fill:#f9ed2e;"/><path d="M61.58,19.798c-.063-.153-.139-.296-.205-.446H2.624c-.065.15-.139.291-.203.444C.961,23.292.152,27.025.033,30.811c-.025.389-.032.746-.032,1.096C0,36.071.758,40.037,2.253,43.788c.058.146.129.285.19.43h59.117c.06-.146.131-.282.189-.43,1.494-3.75,2.258-7.752,2.251-11.789,0-.442-.011-.802-.032-1.154-.117-3.797-.926-7.54-2.388-11.046Z" style="fill:#dd3330;"/></svg>