<?xml version="1.0" encoding="UTF-8"?><svg id="google-maps" xmlns="http://www.w3.org/2000/svg" width="32" height="32" viewBox="0 0 32 32"><path d="M27.05,8.09c-.01-.07-.03-.14-.06-.21-.02-.07-.05-.14-.07-.21l-.01.01c-1.18-3.31-3.77-5.83-6.96-6.98-.3-.11-.61-.21-.93-.29-.02-.02-.05-.02-.07-.03-.23-.06-.47-.11-.72-.16-.1-.02-.21-.04-.31-.06-.28-.05-.57-.08-.85-.1-.02-.02-.05-.02-.07-.02-.34-.03-.66-.04-1-.04-3.21,0-6.11,1.3-8.22,3.4-.94.93-1.69,2.01-2.25,3.19-.05.09-.09.18-.13.28-.04.08-.08.15-.1.23,0,.01-.01.02-.02.03,0,.01-.01.03-.02.04-.01.02-.02.06-.03.08-.05.13-.1.24-.14.37-.07.19-.13.36-.19.55-.01.02-.01.04-.02.07-.02.06-.04.13-.06.2-.01.02-.01.05-.02.08,0,.01-.01.03-.01.04-.02.05-.03.1-.04.15-.01.03-.02.05-.02.07-.06.22-.11.43-.14.65-.04.14-.06.28-.07.42-.01.01-.01.03-.01.05-.08.57-.13,1.14-.13,1.72,0,.31.01.63.03.94,0,.11.02.2.03.29.04.48.11.94.21,1.41.72,3.67,2.94,6.28,5.46,8.98.21.21.38.45.58.66.92,1.05,1.73,2.19,2.43,3.4,0,.01.01.02.02.03v.01c.34.59.65,1.2.92,1.81.01.03.02.05.03.07.29.66.55,1.31.77,1.98.05.14.12.27.21.37l.07.07c.06.08.14.14.23.19.03.02.04.03.07.04h.01c.11.06.22.1.35.11.17.03.35.02.51-.04.34-.1.61-.36.74-.69.43-1.21.96-2.37,1.58-3.5.16-.29.32-.59.48-.87.2-.35.41-.69.64-1.03.02-.02.03-.03.04-.04.58-.91,1.23-1.77,1.94-2.58,3.33-3.38,5.89-6.49,5.89-11.61,0-1.2-.2-2.39-.57-3.53ZM20.259,15.822l-.049.049c-1.129,1.117-2.634,1.736-4.211,1.736-3.313,0-5.995-2.682-5.995-5.995,0-1.384.485-2.731,1.359-3.799l.121-.133c.085-.109.17-.206.267-.303s.194-.182.303-.267l.146-.146c2.354-1.918,5.826-1.796,8.034.388,2.354,2.33,2.354,6.129.024,8.471Z"/></svg>