<?xml version="1.0" encoding="UTF-8"?><svg id="Layer_1" xmlns="http://www.w3.org/2000/svg" width="1920" height="869" viewBox="0 0 1920 869"><path d="M53.603,604.358c-7.573,3.502-15.442,7.876-23.599,13.107-8.171,5.246-14.88,11.659-20.111,19.24-.577.577-1.449,2.18-2.616,4.81-1.181,2.623-.598,4.515,1.744,5.682,6.413.577,12.538-.155,18.367-2.194,5.815-2.047,11.638-4.522,17.467-7.426,14.57-7.58,27.678-16.173,39.323-25.793,11.659-9.62,23.037-19.964,34.119-31.025-11.082,2.904-22.017,6.392-32.797,10.464-10.787,4.086-21.412,8.466-31.897,13.136ZM488.066,3.772c4.086-4.064,6.273-4.058,6.554.028.295,4.071-.134,7.271-1.294,9.591-12.826,35.554-28.283,69.947-46.355,103.173-18.058,33.212-36.116,66.431-54.174,99.657-40.223,67.022-83.061,132.588-128.516,196.698-18.058,25.638-37.002,51.129-56.818,76.479-19.823,25.357-40.518,49.976-62.078,73.864,18.656-4.648,37.452-9.156,56.396-13.53,18.937-4.388,38.029-7.742,57.268-10.07,17.475-2.904,35.244-4.501,53.302-4.782,18.072-.295,35.849,1.006,53.33,3.91,11.659,1.744,23.754,5.246,36.285,10.492,12.524,5.253,21.701,13.698,27.537,25.343.577.577,1.892,3.495,3.938,8.748,2.039,5.246,2.194,7.876.45,7.876-.605,0-1.631-1.463-3.094-4.388-1.449-2.911-2.749-5.232-3.91-6.976-4.669-6.413-10.365-11.364-17.074-14.852-6.694-3.502-13.832-6.132-21.405-7.876-11.645-2.925-23.592-4.817-35.835-5.682-12.25-.879-24.485-1.322-36.707-1.322-30.905.584-61.509,3.206-91.809,7.876-30.308,4.655-60.32,10.478-90.037,17.467-2.328,2.925-4.662,5.696-7.004,8.326-2.328,2.623-4.944,5.386-7.848,8.298-12.25,12.242-25.364,23.318-39.351,33.219-13.987,9.901-29.14,18.058-45.455,24.471-4.085,1.744-8.312,3.052-12.686,3.938-4.367.879-8.586,1.026-12.658.45-8.157-1.765-10.78-7.306-7.876-16.624,3.488-7.58,8.881-13.994,16.174-19.239,7.278-5.232,14.415-9.894,21.405-13.98,14.57-8.157,29.429-15.154,44.583-20.983,15.168-5.837,30.329-10.787,45.483-14.852,10.478-11.659,20.533-23.606,30.153-35.835,9.62-12.243,19.085-24.781,28.409-37.607,23.888-32.045,46.615-64.532,68.182-97.463,21.56-32.924,42.543-66.297,62.95-100.107,27.973-43.711,54.202-88.441,78.674-134.198,24.485-45.75,49.259-91.064,74.314-135.942,2.904-4.648,5.668-9.015,8.298-13.108,2.623-4.085,5.386-7.58,8.298-10.492Z"/><path d="M756.462,420.767c.577-.577,1.589-1.16,3.038-1.744,1.463-.577,1.61,0,.45,1.744-2.911,4.669-6.406,9.05-10.492,13.136-4.093,4.071-8.171,8.438-12.235,13.108-5.836,5.816-11.954,12.081-18.368,18.79-6.413,6.694-12.826,13.248-19.239,19.661-12.812,12.827-26.068,25.948-39.773,39.351-13.691,13.41-28.114,25.646-43.261,36.707-4.093,2.925-9.634,5.843-16.624,8.748-6.997,2.904-10.787-.295-11.364-9.62-.583-7.573.577-15.147,3.488-22.727,2.925-7.573,5.837-14.57,8.748-20.983,2.925-5.246,5.696-10.492,8.326-15.723,2.623-5.246,5.386-10.499,8.298-15.752-5.837,5.837-14.001,13.417-24.499,22.756-10.485,9.324-22.137,18.93-34.963,28.831-12.812,9.901-25.336,18.213-37.579,24.921-12.25,6.694-22.734,10.042-31.475,10.042-10.478,0-16.743-4.507-18.79-13.529-2.039-9.036-2.482-17.341-1.322-24.921,1.181-9.339,3.671-18.375,7.454-27.115,3.79-8.734,7.721-16.891,11.786-24.471,9.324-15.73,20.393-30.884,33.219-45.455,12.826-14.57,26.524-26.813,41.095-36.735,14.57-9.901,30.744-18.347,48.521-25.343,17.777-6.99,35.694-8.734,53.752-5.232,6.413.584,12.531,2.63,18.367,6.132,5.829,3.488,9.908,8.431,12.236,14.823.577,1.765,1.16,4.247,1.744,7.454.577,3.206-.584,5.394-3.488,6.554-2.328.584-4.219-.577-5.682-3.488-1.463-2.925-2.778-5.26-3.938-7.004-8.741-13.403-20.547-19.816-35.413-19.239-14.851.583-28.69,3.79-41.517,9.62-13.41,5.836-25.793,13.557-37.157,23.177-11.364,9.606-21.996,19.943-31.897,31.025-9.922,11.645-18.958,24.612-27.115,38.901-8.157,14.275-15.442,28.402-21.855,42.389-1.16,2.925-2.904,7.89-5.232,14.88-2.342,6.997-3.214,13.41-2.616,19.24.584,5.815,4.374,8.431,11.364,7.848,13.389-1.16,28.1-6.983,44.133-17.467,16.033-10.499,31.475-22.741,46.327-36.735,14.865-13.987,26.961-26.222,36.285-36.707,4.669-4.669,9.036-9.479,13.108-14.43,4.085-4.95,8.164-10.049,12.236-15.301,1.758-3.488,2.349-5.232,1.772-5.232,2.321-2.925,4.796-5.548,7.426-7.876,2.623-2.321,5.682-4.655,9.17-7.004,1.744-1.16,4.508-2.032,8.298-2.616,3.783-.577,5.682,1.167,5.682,5.232-.584,3.509-1.899,6.863-3.938,10.07-2.025,3.207-3.91,6.266-5.654,9.17-11.082,18.079-22.889,36.158-35.413,54.231-12.531,18.058-22.882,37.283-31.053,57.662-1.167,2.349-1.744,4.683-1.744,7.004,3.502,0,7.004-1.16,10.492-3.488,3.502-2.341,6.709-4.676,9.62-7.004,4.669-2.904,8.895-6.104,12.686-9.592,3.783-3.502,7.714-7.011,11.786-10.52,16.912-15.147,32.945-30.301,48.099-45.455,6.413-6.413,12.967-13.115,19.661-20.111,6.695-6.99,13.248-13.698,19.662-20.111,3.502-3.488,6.863-6.835,10.07-10.041,3.207-3.207,6.554-6.259,10.042-9.17l5.26-5.26Z"/><path d="M1635.909,37.863c1.16.584,3.636,1.603,7.426,3.066,3.783,1.463,5.97,2.778,6.554,3.938,0,0-.872-.141-2.616-.422-1.744-.295-4.078-.738-7.004-1.322-41.39-12.826-82.766-21.279-124.128-25.371-26.82-3.488-53.633-5.661-80.446-6.526-26.799-.879-53.893-.738-81.29.422-39.625,1.167-79.257,4.515-118.896,10.041-39.625,5.534-78.674,12.967-117.152,22.306-37.881,8.741-75.762,20.688-113.637,35.835-16.314,6.997-33.071,15.161-50.264,24.499-17.2,9.324-31.63,21.265-43.289,35.835-11.645,13.389-17.756,27.664-18.34,42.811v6.582c0,2.025-.577,3.924-1.744,5.682-1.182,4.072-2.933,4.072-5.26,0-2.321-4.086-3.776-6.708-4.36-7.876-2.342-7.573-2.63-16.019-.872-25.343,1.167-8.171,4.078-15.611,8.748-22.305,4.655-6.694,9.887-12.953,15.723-18.789,13.403-13.403,28.557-24.626,45.455-33.669,16.89-9.036,34.091-17.045,51.586-24.021,36.13-13.987,72.992-25.209,110.571-33.669,37.593-8.453,75.333-14.718,113.215-18.79,37.874-4.669,76.044-7.876,114.509-9.62,38.479-1.744,76.655-1.16,114.536,1.744,27.397,2.327,54.203,5.534,80.418,9.619,26.229,4.072,52.177,9.894,77.83,17.467,4.065,1.181,7.848,2.503,11.336,3.966,3.502,1.448,7.299,2.749,11.392,3.91ZM1199.674,78.957c3.488-2.904,6.104-3.776,7.848-2.616,1.758,1.168,2.06,4.079.9,8.748-2.349,5.815-5.119,11.786-8.326,17.918-3.206,6.118-6.265,12.376-9.169,18.789-37.882,72.275-75.91,144.689-114.087,217.259-38.184,72.556-77.084,144.373-116.702,215.459-7.581,12.827-14.866,25.793-21.855,38.901-6.997,13.121-14.866,25.512-23.6,37.157-3.509,4.669-5.555,6.42-6.132,5.26-.584-1.167,0-3.502,1.744-7.004,1.758-3.488,2.932-6.406,3.516-8.748,5.809-13.972,12.067-27.952,18.762-41.939,6.708-13.987,13.564-27.685,20.561-41.095,36.13-71.107,72.408-141.624,108.827-211.549,36.433-69.94,73.301-139.887,110.599-209.834,2.925-6.413,6.708-13.108,11.364-20.083,4.67-6.99,9.915-12.531,15.752-16.623Z"/><path d="M1389.378,420.767c.577-.577,1.589-1.16,3.038-1.744,1.463-.577,1.61,0,.45,1.744-2.911,4.669-6.406,9.05-10.492,13.136-4.093,4.071-8.171,8.438-12.236,13.108-5.836,5.816-11.954,12.081-18.367,18.79-6.413,6.694-12.826,13.248-19.239,19.661-12.812,12.827-26.068,25.948-39.773,39.351-13.691,13.41-28.114,25.646-43.261,36.707-4.093,2.925-9.634,5.843-16.623,8.748-6.997,2.904-10.787-.295-11.364-9.62-.584-7.573.577-15.147,3.488-22.727,2.925-7.573,5.836-14.57,8.748-20.983,2.925-5.246,5.696-10.492,8.326-15.723,2.623-5.246,5.386-10.499,8.298-15.752-5.837,5.837-14.001,13.417-24.499,22.756-10.485,9.324-22.136,18.93-34.963,28.831-12.812,9.901-25.336,18.213-37.579,24.921-12.25,6.694-22.734,10.042-31.475,10.042-10.478,0-16.743-4.507-18.789-13.529-2.039-9.036-2.482-17.341-1.322-24.921,1.181-9.339,3.671-18.375,7.454-27.115,3.79-8.734,7.721-16.891,11.786-24.471,9.324-15.73,20.393-30.884,33.219-45.455,12.826-14.57,26.524-26.813,41.095-36.735,14.57-9.901,30.744-18.347,48.52-25.343,17.777-6.99,35.694-8.734,53.752-5.232,6.413.584,12.531,2.63,18.368,6.132,5.829,3.488,9.908,8.431,12.235,14.823.577,1.765,1.16,4.247,1.744,7.454.577,3.206-.584,5.394-3.488,6.554-2.328.584-4.219-.577-5.682-3.488-1.463-2.925-2.778-5.26-3.938-7.004-8.741-13.403-20.548-19.816-35.413-19.239-14.852.583-28.691,3.79-41.517,9.62-13.41,5.836-25.793,13.557-37.157,23.177-11.364,9.606-21.996,19.943-31.897,31.025-9.922,11.645-18.958,24.612-27.115,38.901-8.157,14.275-15.442,28.402-21.855,42.389-1.16,2.925-2.904,7.89-5.232,14.88-2.342,6.997-3.214,13.41-2.616,19.24.584,5.815,4.374,8.431,11.364,7.848,13.389-1.16,28.1-6.983,44.132-17.467,16.033-10.499,31.475-22.741,46.327-36.735,14.866-13.987,26.961-26.222,36.285-36.707,4.669-4.669,9.036-9.479,13.107-14.43,4.086-4.95,8.164-10.049,12.236-15.301,1.758-3.488,2.349-5.232,1.772-5.232,2.321-2.925,4.796-5.548,7.426-7.876,2.623-2.321,5.682-4.655,9.17-7.004,1.744-1.16,4.508-2.032,8.298-2.616,3.783-.577,5.682,1.167,5.682,5.232-.584,3.509-1.898,6.863-3.938,10.07-2.025,3.207-3.909,6.266-5.654,9.17-11.082,18.079-22.889,36.158-35.413,54.231-12.531,18.058-22.882,37.283-31.053,57.662-1.167,2.349-1.744,4.683-1.744,7.004,3.502,0,7.004-1.16,10.492-3.488,3.502-2.341,6.709-4.676,9.62-7.004,4.669-2.904,8.896-6.104,12.686-9.592,3.783-3.502,7.714-7.011,11.786-10.52,16.912-15.147,32.945-30.301,48.099-45.455,6.413-6.413,12.967-13.115,19.661-20.111,6.694-6.99,13.248-13.698,19.662-20.111,3.502-3.488,6.863-6.835,10.07-10.041,3.206-3.207,6.554-6.259,10.042-9.17l5.26-5.26Z"/><path d="M1506.498,491.593c2.925-4.086,5.837-8.164,8.748-12.236,2.925-4.086,5.836-8.171,8.748-12.264-19.239,1.765-37.016,6.146-53.33,13.136-12.25,5.232-23.761,11.638-34.541,19.211-10.787,7.581-20.547,16.328-29.281,26.243-4.071,4.071-8.438,9.606-13.107,16.595-4.669,6.997-6.413,13.698-5.232,20.111,1.16,4.093,3.924,6.286,8.298,6.582,4.367.281,9.318-.309,14.852-1.772,5.527-1.463,9.465-2.482,11.814-3.066,16.891-6.413,32.185-16.462,45.877-30.153,13.705-13.684,26.088-27.818,37.157-42.389ZM1328.167,555.415c2.328-5.83,4.951-11.511,7.876-17.046,2.911-5.548,5.527-10.942,7.848-16.173,15.752-32.642,32.073-65.285,48.971-97.913,16.891-32.642,33.796-64.99,50.715-97.041,18.635-35.553,37.565-70.952,56.79-106.211,19.239-35.272,39.055-70.102,59.462-104.495,2.925-4.648,5.991-9.156,9.198-13.529,3.207-4.367,6.842-8.305,10.914-11.814,1.744-1.744,4.951-3.488,9.62-5.232,4.67-1.758,5.541.274,2.616,6.103-18.058,30.885-35.547,62.071-52.458,93.553-16.898,31.468-33.796,63.224-50.687,95.269-20.983,39.063-41.678,77.823-62.078,116.281-20.407,38.465-41.678,76.641-63.822,114.537,11.082-14.57,22.446-29.872,34.091-45.904,11.659-16.033,23.909-30.463,36.735-43.289,11.645-11.645,24.893-22.994,39.745-34.063,14.866-11.082,30.758-17.496,47.677-19.24,8.734-1.182,17.186-.169,25.343,3.038,8.157,3.207,13.698,8.888,16.623,17.045,4.065,11.082,4.346,23.177.844,36.285-3.488,13.108-7.862,24.331-13.107,33.669,4.669,0,9.479.155,14.43.45,4.95.282,9.761.717,14.43,1.294,2.904,0,7.271.584,13.108,1.744,5.829,1.167,11.223,2.475,16.173,3.938,4.95,1.463,7.13,2.778,6.554,3.938,0,.584-2.046.584-6.132,0-4.071-.577-8.291-1.16-12.658-1.744-4.374-.577-6.849-.872-7.426-.872-13.994-1.758-27.98-2.644-41.967-2.644-7.58,12.826-16.173,24.781-25.793,35.863-9.62,11.068-20.252,21.546-31.897,31.447-8.741,7.594-19.092,15.182-31.053,22.755-11.947,7.58-23.894,13.403-35.835,17.467-11.947,4.086-22.58,4.958-31.897,2.616-9.324-3.488-12.531-9.887-9.62-19.211,2.904-9.338,6.399-16.623,10.492-21.855,4.669-7.573,10.351-14.57,17.045-20.983,6.694-6.413,13.825-12.243,21.405-17.496,27.973-19.816,60.32-31.475,97.041-34.963,4.669-8.734,9.767-20.238,15.302-34.513,5.527-14.289,5.97-26.391,1.322-36.313-4.093-6.392-10.211-9.739-18.367-10.042-8.157-.295-15.442.436-21.855,2.194-9.325,2.911-17.918,6.835-25.793,11.785-7.862,4.951-15.576,10.632-23.149,17.046-14.57,11.666-27.98,25.224-40.223,40.673-12.25,15.435-23.902,30.434-34.963,45.005-5.836,6.997-13.269,16.617-22.305,28.859-9.036,12.25-15.878,21.567-20.533,27.959-1.16,1.765-2.763,3.959-4.81,6.582-2.039,2.609-3.643,4.205-4.81,4.782-1.16.605-1.448-.548-.872-3.46.584-2.925,1.167-4.965,1.744-6.132Z"/><path d="M1827.349,77.214c4.064-2.341,5.808-1.913,5.232,1.294-.584,3.206-1.603,6.856-3.066,10.942-1.449,4.071-2.461,6.695-3.038,7.876-26.82,48.943-53.485,97.899-79.996,146.856-26.518,48.963-53.183,97.927-79.996,146.884-12.826,25.055-26.525,50.405-41.095,76.058-14.57,25.639-28.845,51.277-42.839,76.93-.577,1.744-1.744,4.515-3.488,8.297-1.744,3.79-2.32,5.682-1.744,5.682,2.327,0,5.246-1.02,8.748-3.066,3.488-2.039,5.527-3.354,6.104-3.938,15.147-10.478,29.717-21.982,43.711-34.513,13.987-12.545,27.685-25.217,41.095-38.029,1.16-1.181,5.091-4.965,11.786-11.364,6.708-6.413,14.289-13.698,22.727-21.855,8.452-8.171,15.737-15.168,21.855-20.983,6.132-5.829,9.486-8.453,10.07-7.876,1.16.584-1.617,4.374-8.326,11.364-6.694,6.997-13.543,13.994-20.533,20.983-6.997,6.997-11.075,11.075-12.235,12.236-13.994,14.57-28.712,28.852-44.161,42.839-15.435,13.994-30.73,27.692-45.877,41.095-4.669,4.071-9.62,8.002-14.851,11.786-5.246,3.79-10.787,7.144-16.624,10.07-2.321.583-5.091,1.026-8.298,1.322-3.207.281-5.387-1.329-6.554-4.838-.577-2.904-.429-6.681.45-11.336.865-4.669,2.166-8.755,3.91-12.264,15.738-34.386,32.628-67.901,50.687-100.529,18.072-32.642,35.863-65.573,53.358-98.785,20.379-38.458,41.207-76.916,62.472-115.381,21.279-38.479,42.417-76.655,63.4-114.537,3.502-5.829,7.44-11.8,11.814-17.917,4.367-6.132,9.465-11.23,15.302-15.302Z"/><path d="M1808.979,380.572c-16.314,8.741-30.884,19.816-43.711,33.219-12.826,13.389-24.19,27.671-34.091,42.839-2.328,3.488-4.515,6.99-6.554,10.492-2.046,3.488-3.938,6.976-5.682,10.463,7.573,0,16.314-1.448,26.215-4.36,17.495-5.246,34.541-12.531,51.136-21.855,16.61-9.317,30.751-20.969,42.417-34.963,3.488-4.669,7.412-11.37,11.786-20.111,4.367-8.734,3.938-15.731-1.294-20.983-5.836-5.246-12.685-6.413-20.561-3.488-7.862,2.911-14.415,5.823-19.662,8.748ZM1920,419.023c0,1.167-1.027,3.206-3.066,6.132-2.025,2.911-4.212,5.816-6.554,8.719-7.581,8.762-15.442,17.657-23.6,26.693-8.157,9.022-16.609,17.608-25.343,25.765-13.41,12.826-27.396,25.217-41.967,37.157-14.57,11.947-30.308,22.882-47.199,32.797-8.762,5.232-18.972,9.894-30.631,13.98-11.645,4.065-22.573,5.077-32.769,3.038-10.196-2.025-18.206-9.451-24.021-22.277-4.086-11.645-4.529-23.585-1.322-35.835,3.206-12.243,7.144-23.606,11.814-34.091,7.58-16.314,18.346-31.756,32.319-46.326,13.987-14.57,28.845-27.538,44.583-38.901,15.752-11.378,29.738-19.394,41.967-24.049,5.829-2.342,11.799-4.093,17.917-5.26,6.132-1.16,11.82-.577,17.073,1.744,5.808,2.349,10.027,5.991,12.658,10.942,2.623,4.951,3.354,10.344,2.194,16.173-1.744,11.666-8.453,23.03-20.111,34.091-9.324,8.157-21.419,16.314-36.285,24.471-14.851,8.157-30.294,14.866-46.326,20.112-16.033,5.253-31.046,8.171-45.033,8.748-4.071,8.157-7.848,17.341-11.335,27.537-3.502,10.203-4.676,20.547-3.516,31.025,1.167,3.509,2.63,7.018,4.388,10.52,1.744,3.488,4.36,5.816,7.848,6.976,8.157,2.911,16.89,3.059,26.215.45,9.338-2.623,17.791-5.401,25.371-8.326,16.891-8.157,32.917-18.206,48.07-30.153,15.147-11.94,29.429-24.331,42.839-37.157,1.16-1.16,4.951-5.091,11.364-11.786,6.413-6.709,13.698-14.148,21.855-22.305s15.287-15.287,21.405-21.405l9.198-9.198Z"/><path d="M225.46,782.725h25.484v2.391h-6.694l21.855,65.482,22.39-65.482h-6.694v-2.391h18.227v2.391h-4.951c-1.259,0-2.11.633-2.56,1.885l-27.481,80.221h-4.557l-27.509-80.221c-.45-1.252-1.308-1.885-2.56-1.885h-4.95v-2.391Z"/><path d="M373.272,862.918v-76.171c0-1.083-.633-1.631-1.885-1.631h-6.301v-2.391h27.368v2.391h-6.301c-1.259,0-1.885.548-1.885,1.631v76.171c0,1.258.626,1.885,1.885,1.885h6.301v2.419h-27.368v-2.419h6.301c1.252,0,1.885-.626,1.885-1.885Z"/><path d="M461.536,867.221v-2.419h6.301c1.252,0,1.885-.626,1.885-1.885v-76.171c0-1.083-.633-1.631-1.885-1.631h-6.301v-2.391h42.529c7.046,0,12.011-.401,14.88-1.21-.809,3.657-1.21,8.748-1.21,15.274v6.301h-3.094l-1.997-13.67c-.19-1.969-1.449-2.953-3.769-2.953h-28.156v36.623h26.947c1.083,0,1.716-.626,1.885-1.885l.675-8.298h2.419v24.134h-2.419l-.675-8.326c-.169-1.238-.802-1.856-1.885-1.856h-26.947v36.594h30.041c2.321,0,3.579-.97,3.769-2.925l1.997-15.695h3.094v6.301c0,7.862.401,13.628,1.21,17.298-2.869-.808-7.841-1.209-14.908-1.209h-44.386Z"/><path d="M598.755,862.918v-76.171c0-1.083-.633-1.631-1.885-1.631h-6.301v-2.391h27.368v2.391h-6.301c-1.259,0-1.885.548-1.885,1.631v76.171c0,1.258.626,1.885,1.885,1.885h6.301v2.419h-27.368v-2.419h6.301c1.252,0,1.885-.626,1.885-1.885Z"/><path d="M687.019,867.221v-2.419h6.301c1.252,0,1.885-.626,1.885-1.885v-76.171c0-1.083-.633-1.631-1.885-1.631h-6.301v-2.391h27.368v2.391h-6.301c-1.258,0-1.885.548-1.885,1.631v76.705h26.693c2.321,0,3.572-.97,3.741-2.925l2.025-15.695h3.094v6.301c0,7.862.401,13.628,1.21,17.298-2.869-.808-7.841-1.209-14.908-1.209h-41.038Z"/><path d="M930.354,798.533l-13.417,36.623h26.693l-13.276-36.623ZM973.136,867.221h-27.509v-2.419h8.72l-9.395-25.878h-29.506l-9.395,25.878h8.72v2.419h-20.252v-2.419h4.979c1.252,0,2.095-.626,2.531-1.885l29.534-80.193h4.557l29.506,80.193c.45,1.258,1.294,1.885,2.531,1.885h4.979v2.419Z"/><path d="M1099.346,867.221l-50.433-74.848v70.545c0,1.258.626,1.885,1.885,1.885h6.301v2.419h-20.927v-2.419h6.301c1.252,0,1.885-.626,1.885-1.885v-76.171c0-1.083-.633-1.631-1.885-1.631h-6.301v-2.391h19.718l43.204,63.85v-59.575c0-1.252-.633-1.885-1.885-1.885h-6.301v-2.391h20.927v2.391h-6.329c-1.238,0-1.856.548-1.856,1.631v80.474h-4.304Z"/><path d="M1214.567,786.466v76.733c0,1.069.626,1.603,1.885,1.603h11.645v2.419h-38.085v-2.419h11.673c1.252,0,1.885-.535,1.885-1.603v-76.733h-17.298c-2.328,0-3.586.984-3.769,2.953l-2.025,15.695h-3.066v-6.301c0-7.876-.408-13.642-1.209-17.299,2.848.809,7.805,1.21,14.88,1.21h35.947c7.067,0,12.039-.401,14.908-1.21-.808,3.657-1.209,9.423-1.209,17.299v6.301h-3.094l-1.997-15.695c-.19-1.969-1.448-2.953-3.769-2.953h-17.299Z"/><path d="M1315.163,862.918v-76.171c0-1.083-.633-1.631-1.885-1.631h-6.301v-2.391h27.368v2.391h-6.301c-1.258,0-1.885.548-1.885,1.631v76.171c0,1.258.626,1.885,1.885,1.885h6.301v2.419h-27.368v-2.419h6.301c1.252,0,1.885-.626,1.885-1.885Z"/><path d="M1432.004,786.466h-9.395v34.344h10.182c5.288,0,9.226-1.786,11.814-5.372,2.588-3.579,3.882-7.763,3.882-12.545s-1.343-8.705-4.022-11.786c-2.686-3.094-6.835-4.641-12.461-4.641ZM1437.489,824.157h-14.88v39.295h14.88c5.358,0,9.542-1.955,12.545-5.879,2.996-3.938,4.5-8.537,4.5-13.811s-1.505-9.873-4.5-13.755c-3.003-3.896-7.187-5.851-12.545-5.851ZM1403.426,867.221v-2.419h6.301c1.252,0,1.885-.535,1.885-1.603v-76.452c0-1.083-.633-1.631-1.885-1.631h-6.301v-2.391h31.391c6.708,0,12.461,1.842,17.242,5.513,4.782,3.657,7.173,8.396,7.173,14.205,0,4.465-1.195,8.375-3.572,11.729-2.363,3.361-5.513,5.879-9.451,7.566,5.639,1.259,10.224,3.811,13.755,7.651,3.523,3.846,5.288,8.966,5.288,15.358s-2.637,11.743-7.904,16.033c-5.274,4.296-11.666,6.441-19.183,6.441h-34.738Z"/><path d="M1531.656,867.221v-2.419h6.301c1.252,0,1.885-.626,1.885-1.885v-76.171c0-1.083-.633-1.631-1.885-1.631h-6.301v-2.391h42.529c7.046,0,12.01-.401,14.879-1.21-.808,3.657-1.209,8.748-1.209,15.274v6.301h-3.094l-1.997-13.67c-.19-1.969-1.448-2.953-3.769-2.953h-28.156v36.623h26.946c1.083,0,1.716-.626,1.885-1.885l.675-8.298h2.419v24.134h-2.419l-.675-8.326c-.169-1.238-.802-1.856-1.885-1.856h-26.946v36.594h30.04c2.321,0,3.579-.97,3.769-2.925l1.997-15.695h3.094v6.301c0,7.862.401,13.628,1.209,17.298-2.869-.808-7.841-1.209-14.908-1.209h-44.386Z"/><path d="M1689.267,868.824c-5.907,0-11.814-1.603-17.721-4.81-1.969-.991-3.312-1.491-4.022-1.491-1.336,0-2.047.942-2.138,2.813l-.141,1.885h-2.559v-22.39h2.419c.802,6.884,3.375,11.954,7.707,15.217,4.346,3.263,9.493,4.894,15.442,4.894s10.45-1.603,13.53-4.81c3.094-3.221,4.641-7.032,4.641-11.42,0-6.976-4.022-12.25-12.067-15.836l-15.977-7.116c-4.824-2.138-8.438-5.063-10.857-8.776-2.419-3.713-3.629-7.714-3.629-12.01,0-6.526,2.194-12.13,6.582-16.82,4.388-4.705,10.689-7.06,18.902-7.06,4.838,0,9.802,1.617,14.908,4.838,1.687.977,2.848,1.463,3.488,1.463,1.16,0,1.786-.935,1.885-2.813l.113-2.672h2.56v23.206h-2.419c-.717-6.878-2.925-11.955-6.638-15.217-3.713-3.263-8.234-4.894-13.557-4.894s-9.416,1.455-12.32,4.36c-2.911,2.911-4.36,6.216-4.36,9.929s.999,7.025,3.01,9.985c2.004,2.946,4.979,5.274,8.917,6.976l16.089,7.116c5.379,2.405,9.43,5.555,12.151,9.451,2.714,3.882,4.078,8.066,4.078,12.545,0,6.343-2.553,11.835-7.651,16.483-5.084,4.655-11.87,6.976-20.365,6.976Z"/><rect x="85.006" y="829.716" width="59.518" height="10"/><rect x="1802.985" y="829.716" width="59.519" height="10"/></svg>