<?xml version="1.0" encoding="UTF-8"?><svg id="apple" xmlns="http://www.w3.org/2000/svg" width="24" height="24" viewBox="0 0 24 24"><path d="M15.528,3.828c.916-1.056,1.374-2.433,1.272-3.828-1.393.112-2.685.767-3.6,1.824-.885,1.023-1.317,2.36-1.2,3.708,1.377.011,2.681-.618,3.528-1.704ZM18.552,12.756c.016-1.869.996-3.598,2.592-4.572-1.004-1.447-2.632-2.336-4.392-2.4-1.872-.192-3.6,1.092-4.596,1.092s-2.4-1.068-3.96-1.044c-2.074.068-3.961,1.221-4.968,3.036-2.112,3.672-.54,9.131,1.572,12.095.96,1.452,2.16,3.096,3.744,3.036s2.1-.984,3.936-.984,2.4.984,3.96.948,2.664-1.488,3.672-2.94c.714-1.054,1.272-2.206,1.656-3.42-1.944-.829-3.208-2.735-3.216-4.848Z"/></svg>