<?xml version="1.0" encoding="UTF-8"?><svg id="copy" xmlns="http://www.w3.org/2000/svg" width="24" height="24" viewBox="0 0 24 24"><path d="M10.634,0h6.455C18.055,0,18.853,0,19.501.053c.676.055,1.296.174,1.878.47.903.46,1.637,1.194,2.098,2.098.296.582.415,1.202.47,1.877.053.65.053,1.447.053,2.412v6.455c0,.955,0,1.664-.163,2.278-.444,1.657-1.738,2.951-3.395,3.395-.372.1-.778.138-1.252.154-.016.474-.054.881-.154,1.252-.444,1.657-1.738,2.951-3.395,3.395-.613.164-1.322.163-2.276.163h-6.455c-.966,0-1.764,0-2.412-.053-.676-.055-1.296-.174-1.878-.47-.903-.46-1.637-1.194-2.098-2.098-.296-.582-.415-1.202-.47-1.877-.053-.65-.053-1.447-.053-2.412v-6.456c0-.954,0-1.663.163-2.276.444-1.657,1.738-2.951,3.395-3.395.372-.1.778-.138,1.252-.154.016-.474.054-.881.154-1.252.444-1.657,1.738-2.951,3.395-3.395C8.971,0,9.68,0,10.634,0M7.212,4.8h5.077c.966,0,1.764,0,2.412.053.676.055,1.296.174,1.878.47.903.46,1.637,1.194,2.098,2.098.296.582.415,1.202.47,1.877.053.649.053,1.447.053,2.412v5.078c.209,0,.418-.023.622-.07.828-.222,1.475-.869,1.697-1.697.072-.268.082-.629.082-1.822v-6.24c0-1.028,0-1.727-.046-2.267-.042-.526-.12-.796-.216-.983-.23-.452-.597-.819-1.049-1.049-.187-.096-.456-.174-.983-.216-.54-.046-1.238-.046-2.267-.046h-6.24c-1.193,0-1.554.011-1.822.082-.828.222-1.475.869-1.697,1.697-.038.144-.059.312-.07.622M6,7.2c-1.193,0-1.554.011-1.822.082-.828.222-1.475.869-1.697,1.697-.072.268-.082.629-.082,1.822v6.24c0,1.028,0,1.727.046,2.267.042.526.12.796.216.983.23.452.597.819,1.049,1.049.187.096.456.174.983.216.54.046,1.238.046,2.267.046h6.24c1.193,0,1.554-.011,1.822-.082.828-.222,1.475-.869,1.697-1.697.072-.268.082-.629.082-1.822v-6.24c0-1.028,0-1.727-.044-2.267-.043-.526-.121-.796-.217-.983-.23-.452-.597-.819-1.049-1.049-.187-.096-.456-.174-.983-.216-.54-.046-1.238-.046-2.267-.046h-6.24Z" style="fill-rule:evenodd;"/></svg>