<svg xmlns="http://www.w3.org/2000/svg" enable-background="new 0 0 68 68" viewBox="0 0 68 68" id="cutlery">
  <path fill="#010101" d="M62.17575,56.2125L29.3533,26.04308c1.99893-4.69391,0.43823-11.11963-4.26539-15.82318
			C19.75175,4.87092,9.15444,1.04776,4.26635,5.93584c-5.04538,5.02398-0.8521,15.68691,4.27469,20.83093
			c5.12989,5.11517,11.54362,6.10558,15.83449,4.25836L54.43077,63.7423c2.04826,2.15998,5.53503,2.27411,7.73561,0.09357
			C64.26163,61.73127,64.27099,58.31711,62.17575,56.2125z"></path>
  <path fill="#010101" d="M32.11889 42.22364L12.77524 62.73651c-1.86053 2.01233-5.08998 2.10315-7.0528.14033-1.94411-1.92532-1.9528-5.15436.13097-7.08083l20.75608-19.56813L32.11889 42.22364zM65.6242 16.94971L49.35793 33.22529c-1.78661 1.76788-4.60211 1.76788-6.39802 0l-1.24407-1.24407-1.4311 1.57149-5.49067-5.04171 1.80527-1.7024-1.23471-1.17859c-1.75852-1.76788-1.75852-4.63014 0-6.39796l16.24754-16.2569c.52381-.52381 1.43116-.52381 1.96433 0l1.89879 1.89879c.54254.57057.53317 1.43116 0 1.96433L43.80177 18.51178c-.38354.36481-.32742 1.04762.14964 1.32822.34608.20581.8325.11224 1.12247-.18709L56.68191 8.04488c.52387-.52381 1.43116-.52381 1.96433 0l1.89879 1.89879c.25257.26193.40226.61738.40226.98219 0 .37412-.14033.7202-.40226.98214L48.87151 23.58152c-.41157.38354-.32736 1.02895.159 1.33759.31805.18709.81377.10288 1.1131-.20576l11.6081-11.59873c.53317-.52381 1.4311-.52381 1.95491 0l1.89885 1.89885C66.13864 15.53728 66.14801 16.40718 65.6242 16.94971z"></path>
</svg>
