<?xml version="1.0" encoding="UTF-8"?><svg id="facebook" xmlns="http://www.w3.org/2000/svg" width="1792" height="1792" viewBox="0 0 1792 1792"><path d="M1456,0c92.556,0,171.694,32.861,237.417,98.583,65.722,65.722,98.583,144.861,98.583,237.417v1120c0,92.556-32.861,171.694-98.583,237.417-65.722,65.722-144.861,98.583-237.417,98.583h-219.333v-694.167h232.167l35-270.667h-267.167v-172.667c0-43.556,9.139-76.222,27.417-98,18.278-21.778,53.861-32.667,106.75-32.667l142.333-1.167v-241.5c-49-7-118.222-10.5-207.667-10.5-105.778,0-190.361,31.111-253.75,93.333-63.389,62.222-95.083,150.111-95.083,263.667v199.5h-233.333v270.667h233.333v694.167H336c-92.556,0-171.694-32.861-237.417-98.583C32.861,1627.694,0,1548.556,0,1456V336c0-92.556,32.861-171.694,98.583-237.417C164.306,32.861,243.444,0,336,0h1120Z"/></svg>